HIERARCHY
ROOT hip
{
  OFFSET 0 0 0
  CHANNELS 6 Xposition Yposition Zposition Zrotation Yrotation Xrotation
  JOINT abdomen
  {
    OFFSET 0 20.6881 -0.73152
    CHANNELS 3 Zrotation Xrotation Yrotation
    JOINT chest
    {
      OFFSET 0 11.7043 -0.48768
      CHANNELS 3 Zrotation Xrotation Yrotation
      JOINT neck
      {
        OFFSET 0 22.1894 -2.19456
        CHANNELS 3 Zrotation Xrotation Yrotation
        JOINT head
        {
          OFFSET -0.24384 7.07133 1.2192
          CHANNELS 3 Zrotation Xrotation Yrotation
          JOINT leftEye
          {
            OFFSET 4.14528 8.04674 8.04672
            CHANNELS 3 Zrotation Xrotation Yrotation
            End Site
            {
              OFFSET 1 0 0
            }
          }
          JOINT rightEye
          {
            OFFSET -3.6576 8.04674 8.04672
            CHANNELS 3 Zrotation Xrotation Yrotation
            End Site
            {
              OFFSET 1 0 0
            }
          }
        }
      }
      JOINT rCollar
      {
        OFFSET -2.68224 19.2634 -4.8768
        CHANNELS 3 Zrotation Xrotation Yrotation
        JOINT rShldr
        {
          OFFSET -8.77824 -1.95073 1.46304
          CHANNELS 3 Zrotation Xrotation Yrotation
          JOINT rForeArm
          {
            OFFSET -28.1742 -1.7115 0.48768
            CHANNELS 3 Zrotation Xrotation Yrotation
            JOINT rHand
            {
              OFFSET -22.5879 0.773209 7.07136
              CHANNELS 3 Zrotation Xrotation Yrotation
              JOINT rThumb1
              {
                OFFSET -1.2192 -0.487915 3.41376
                CHANNELS 3 Zrotation Xrotation Yrotation
                JOINT rThumb2
                {
                  OFFSET -3.37035 -0.52449 3.41376
                  CHANNELS 3 Zrotation Xrotation Yrotation
                  End Site
                  {
                    OFFSET -1.78271 -1.18214 1.43049
                  }
                }
              }
              JOINT rIndex1
              {
                OFFSET -7.75947 0.938293 5.60832
                CHANNELS 3 Zrotation Xrotation Yrotation
                JOINT rIndex2
                {
                  OFFSET -2.54057 -0.884171 1.56538
                  CHANNELS 3 Zrotation Xrotation Yrotation
                  End Site
                  {
                    OFFSET -1.62519 -0.234802 1.16502
                  }
                }
              }
              JOINT rMid1
              {
                OFFSET -8.24714 1.18213 3.41376
                CHANNELS 3 Zrotation Xrotation Yrotation
                JOINT rMid2
                {
                  OFFSET -3.10165 -0.590103 1.0647
                  CHANNELS 3 Zrotation Xrotation Yrotation
                  End Site
                  {
                    OFFSET -2.48547 -0.328903 0.83742
                  }
                }
              }
              JOINT rRing1
              {
                OFFSET -8.82822 0.546677 1.51678
                CHANNELS 3 Zrotation Xrotation Yrotation
                JOINT rRing2
                {
                  OFFSET -2.60934 -0.819778 -0.0198488
                  CHANNELS 3 Zrotation Xrotation Yrotation
                  End Site
                  {
                    OFFSET -2.33842 -0.294052 0.168128
                  }
                }
              }
              JOINT rPinky1
              {
                OFFSET -8.27202 -0.0477905 -0.4584
                CHANNELS 3 Zrotation Xrotation Yrotation
                JOINT rPinky2
                {
                  OFFSET -1.82734 -0.647385 -0.700984
                  CHANNELS 3 Zrotation Xrotation Yrotation
                  End Site
                  {
                    OFFSET -1.69225 -0.51767 -0.607171
                  }
                }
              }
            }
          }
        }
      }
      JOINT lCollar
      {
        OFFSET 2.68224 19.2634 -4.8768
        CHANNELS 3 Zrotation Xrotation Yrotation
        JOINT lShldr
        {
          OFFSET 8.77824 -1.95073 1.46304
          CHANNELS 3 Zrotation Xrotation Yrotation
          JOINT lForeArm
          {
            OFFSET 28.1742 -1.7115 0.48768
            CHANNELS 3 Zrotation Xrotation Yrotation
            JOINT lHand
            {
              OFFSET 22.5879 0.773209 7.07136
              CHANNELS 3 Zrotation Xrotation Yrotation
              JOINT lThumb1
              {
                OFFSET 1.2192 -0.487915 3.41376
                CHANNELS 3 Zrotation Xrotation Yrotation
                JOINT lThumb2
                {
                  OFFSET 3.37035 -0.52449 3.41376
                  CHANNELS 3 Zrotation Xrotation Yrotation
                  End Site
                  {
                    OFFSET 1.78271 -1.18214 1.43049
                  }
                }
              }
              JOINT lIndex1
              {
                OFFSET 7.75947 0.938293 5.60832
                CHANNELS 3 Zrotation Xrotation Yrotation
                JOINT lIndex2
                {
                  OFFSET 2.54057 -0.884171 1.56538
                  CHANNELS 3 Zrotation Xrotation Yrotation
                  End Site
                  {
                    OFFSET 1.62519 -0.234802 1.16502
                  }
                }
              }
              JOINT lMid1
              {
                OFFSET 8.24714 1.18213 3.41376
                CHANNELS 3 Zrotation Xrotation Yrotation
                JOINT lMid2
                {
                  OFFSET 3.10165 -0.590103 1.0647
                  CHANNELS 3 Zrotation Xrotation Yrotation
                  End Site
                  {
                    OFFSET 2.48547 -0.328903 0.83742
                  }
                }
              }
              JOINT lRing1
              {
                OFFSET 8.82822 0.546677 1.51678
                CHANNELS 3 Zrotation Xrotation Yrotation
                JOINT lRing2
                {
                  OFFSET 2.60934 -0.819778 -0.0198488
                  CHANNELS 3 Zrotation Xrotation Yrotation
                  End Site
                  {
                    OFFSET 2.33842 -0.294052 0.168128
                  }
                }
              }
              JOINT lPinky1
              {
                OFFSET 8.27202 -0.0477905 -0.4584
                CHANNELS 3 Zrotation Xrotation Yrotation
                JOINT lPinky2
                {
                  OFFSET 1.82734 -0.647385 -0.700984
                  CHANNELS 3 Zrotation Xrotation Yrotation
                  End Site
                  {
                    OFFSET 1.69225 -0.51767 -0.607171
                  }
                }
              }
            }
          }
        }
      }
    }
  }
  JOINT rButtock
  {
    OFFSET -8.77824 4.35084 1.2192
    CHANNELS 3 Zrotation Xrotation Yrotation
    JOINT rThigh
    {
      OFFSET 0 -1.70687 -2.19456
      CHANNELS 3 Zrotation Xrotation Yrotation
      JOINT rShin
      {
        OFFSET 0 -36.8199 0.73152
        CHANNELS 3 Zrotation Xrotation Yrotation
        JOINT rFoot
        {
          OFFSET 0.73152 -45.1104 -5.12064
          CHANNELS 3 Zrotation Xrotation Yrotation
          End Site
          {
            OFFSET -1.1221 -3.69964 12.103
          }
        }
      }
    }
  }
  JOINT lButtock
  {
    OFFSET 8.77824 4.35084 1.2192
    CHANNELS 3 Zrotation Xrotation Yrotation
    JOINT lThigh
    {
      OFFSET 0 -1.70687 -2.19456
      CHANNELS 3 Zrotation Xrotation Yrotation
      JOINT lShin
      {
        OFFSET 0 -36.8199 0.73152
        CHANNELS 3 Zrotation Xrotation Yrotation
        JOINT lFoot
        {
          OFFSET -0.73152 -45.1104 -5.12064
          CHANNELS 3 Zrotation Xrotation Yrotation
          End Site
          {
            OFFSET 1.1221 -3.69964 12.103
          }
        }
      }
    }
  }
}
MOTION
Frames:	9
Frame Time:	0.00833333
0.0 0.0 0.0 0.0 0.0 0.0 0.0 0.0 0.0 0.0 0.0 0.0 0.0 0.0 0.0 0.0 0.0 0.0 0.0 0.0 0.0 0.0 0.0 0.0 0.0 0.0 0.0 0.0 0.0 0.0 0.0 0.0 0.0 0.0 0.0 0.0 0.0 0.0 0.0 0.0 0.0 0.0 0.0 0.0 0.0 0.0 0.0 0.0 0.0 0.0 0.0 0.0 0.0 0.0 0.0 0.0 0.0 0.0 0.0 0.0 0.0 0.0 0.0 0.0 0.0 0.0 0.0 0.0 0.0 0.0 0.0 0.0 0.0 0.0 0.0 0.0 0.0 0.0 0.0 0.0 0.0 0.0 0.0 0.0 0.0 0.0 0.0 0.0 0.0 0.0 0.0 0.0 0.0 0.0 0.0 0.0 0.0 0.0 0.0 0.0 0.0 0.0 0.0 0.0 0.0 0.0 0.0 0.0 0.0 0.0 0.0 0.0 0.0 0.0 0.0 0.0 0.0 0.0 0.0 0.0 0.0 0.0 0.0 0.0 0.0 0.0 0.0 0.0 0.0 0.0 0.0 0.0
18.0553 82.125 46.2075 -0.0 -0.0 -0.0 -0.0 0.0 -0.0 0.0 -0.0 -0.0 0.245875 19.608241 -158.802917 7.579128 18.139248 157.548848 -0.0 -0.0 0.0 -0.0 -0.0 0.0 -142.973735 39.431617 147.390037 -151.980852 -2.335175 170.955575 78.446302 -70.61328 49.91037 -165.020016 47.552031 138.60362 -89.136032 38.427358 50.299234 146.456834 -50.88942 64.743853 -162.919155 -37.929343 122.629395 21.380488 3.831108 -6.531267 89.035113 -81.393384 59.759886 -168.492282 -17.676787 140.817453 -132.481743 54.102976 155.533585 15.776872 20.8659 -13.736744 -139.224096 -4.39683 -136.390672 -18.458714 -37.607313 -22.372021 142.973735 39.431617 -147.390037 -18.812347 16.03942 -8.544772 -3.155762 7.282599 33.473924 -168.49089 -22.388323 -142.948502 -6.463714 -6.452652 0.634888 138.534625 -41.111261 -122.429792 46.208543 39.652969 -36.318179 0.851338 5.144149 9.89838 0.571049 1.648356 -0.322148 176.333359 -34.265715 -143.982383 0.014868 -1.323148 0.415899 77.193154 -87.164215 88.555616 1.178169 -2.985265 1.092498 82.364168 -54.694839 79.557868 -0.0 0.0 -0.0 -0.0 -0.0 -0.0 7.397073 5.294191 87.407088 -5.764178 27.058788 -81.231577 -0.0 0.0 -0.0 -0.0 -0.0 -0.0 -7.507689 6.266531 -95.937971 63.789946 85.973743 11.073513
17.7419 82.1649 46.0728 -0.0 -0.0 -0.0 -0.0 0.0 -0.0 0.0 -0.0 -0.0 0.245875 19.608241 -158.802917 7.579128 18.139248 157.548848 -0.0 -0.0 0.0 -0.0 -0.0 0.0 -142.973735 39.431617 147.390037 -151.980852 -2.335175 170.955575 11.412418 9.227559 -1.498477 -13.289973 37.43742 3.180886 -178.51928 -16.064275 89.475724 -9.624525 -51.670161 0.704843 -27.608968 30.765951 20.255213 -69.772454 54.752534 42.981052 23.903801 -61.333833 1.399383 -151.008034 25.833016 133.447004 -145.118942 0.185466 -179.186604 -147.031261 45.999477 175.527211 -8.191002 -17.575975 -7.729117 -155.908978 37.643986 -149.431176 142.973735 39.431617 -147.390037 -21.143811 1.283524 -7.278457 -128.612371 68.436114 149.506862 159.984058 54.124006 -134.930176 -176.505527 -20.695006 -88.628526 -54.843233 -74.15566 -40.241225 11.063308 15.60616 -7.220017 -0.272184 -1.836907 3.753504 167.375306 -28.008469 -145.269175 86.689489 62.511936 -81.239721 -0.000171 0.022623 -0.007107 -0.000551 -0.032723 0.008377 -0.098846 0.258289 -0.091255 -63.202151 86.030393 27.320517 -0.0 0.0 -0.0 -0.0 -0.0 -0.0 7.397073 5.294191 87.407088 -5.774708 27.212116 -81.180018 -0.0 0.0 -0.0 -0.0 -0.0 -0.0 -7.507689 6.266531 -95.937971 63.789946 85.973743 11.073513
17.5508 82.1918 45.9939 -0.0 -0.0 -0.0 -0.0 0.0 -0.0 0.0 -0.0 -0.0 0.245875 19.608241 -158.802917 7.579128 18.139248 157.548848 -0.0 -0.0 0.0 -0.0 -0.0 0.0 -142.973735 39.431617 147.390037 -151.980852 -2.335175 170.955575 11.412418 9.227559 -1.498477 -13.289973 37.43742 3.180886 -178.51928 -16.064275 89.475724 5.58083 -60.920315 6.944574 159.641557 -69.973343 102.396332 -2.149856 27.763345 10.404249 23.903801 -61.333833 1.399383 -38.644005 53.046776 32.380564 -145.118942 0.185529 -179.186624 -135.232054 -49.57316 -167.874586 -44.838755 -48.032887 -43.620107 -162.287321 72.799216 -153.429124 142.973735 39.431617 -147.390037 -18.812347 16.03942 -8.544772 -3.844948 9.632042 33.655235 -169.365616 -20.081836 -143.345321 5.132087 4.978853 -1.005551 125.560247 -21.373947 -110.741366 -11.98129 -21.346868 5.061629 17.386218 22.106539 -11.270347 -23.903801 -61.333833 -1.399383 4.379616 14.069483 -5.56969 145.121957 1.974539 179.748654 -20.39321 -0.111503 9.386725 26.564207 -38.860901 25.60587 162.924924 71.315024 153.076754 -0.0 0.0 -0.0 -0.0 -0.0 -0.0 7.397073 5.294191 87.407088 -5.764178 27.058788 -81.231577 -0.0 0.0 -0.0 -0.0 -0.0 -0.0 -7.507689 6.266531 -95.937971 63.789946 85.973743 11.073513
17.3009 82.2186 45.8989 -0.0 -0.0 -0.0 -0.0 0.0 -0.0 0.0 -0.0 -0.0 0.245875 19.608241 -158.802917 7.579128 18.139248 157.548848 -0.0 -0.0 0.0 -0.0 -0.0 0.0 -142.973735 39.431617 147.390037 -151.980852 -2.335175 170.955575 11.412418 9.227559 -1.498477 -13.289973 37.43742 3.180886 -178.51928 -16.064275 89.475724 -9.624525 -51.670161 0.704843 -27.608968 30.765951 20.255213 -69.772454 54.752534 42.981052 23.903801 -61.333833 1.399383 -151.008034 25.833016 133.447004 -145.118942 0.185466 -179.186604 -147.031261 45.999477 175.527211 -8.191002 -17.575975 -7.729117 -155.908978 37.643986 -149.431176 142.973735 39.431617 -147.390037 -21.143811 1.283524 -7.278457 -128.612371 68.436114 149.506862 159.984058 54.124006 -134.930176 -176.505527 -20.695006 -88.628526 -54.843233 -74.15566 -40.241225 11.063308 15.60616 -7.220017 -0.272184 -1.836907 3.753504 167.375306 -28.008469 -145.269175 86.689489 62.511936 -81.239721 -0.000171 0.022623 -0.007107 -0.000551 -0.032723 0.008377 -0.098846 0.258289 -0.091255 -63.202151 86.030393 27.320517 -0.0 0.0 -0.0 -0.0 -0.0 -0.0 7.397073 5.294191 87.407088 -5.774708 27.212116 -81.180018 -0.0 0.0 -0.0 -0.0 -0.0 -0.0 -7.507689 6.266531 -95.937971 63.789946 85.973743 11.073513
17.1407 82.2248 45.8053 -0.0 -0.0 -0.0 -0.0 0.0 -0.0 0.0 -0.0 -0.0 0.245875 19.608241 -158.802917 7.579128 18.139248 157.548848 -0.0 -0.0 0.0 -0.0 -0.0 0.0 -142.973735 39.431617 147.390037 -151.980852 -2.335175 170.955575 9.507229 15.727297 -1.307255 -10.508484 31.078892 1.833601 176.505527 -20.695006 88.628526 -103.652677 19.361865 44.558116 -162.636721 -37.465429 122.64953 -163.899018 -38.558296 113.361721 68.983989 -80.15399 40.578188 -167.378488 -14.321945 140.738556 -145.119466 0.267753 -179.212454 22.399741 51.482211 -3.007207 9.521118 30.755356 8.281497 -27.594248 -40.168922 -26.143224 142.973735 39.431617 -147.390037 -18.812347 16.03942 -8.544772 -3.844948 9.632042 33.655235 -169.365616 -20.081836 -143.345321 5.132087 4.978853 -1.005551 125.560247 -21.373947 -110.741366 -11.98129 -21.346868 5.061629 71.123051 44.16056 -48.924334 -23.903801 -61.333833 -1.399383 10.146821 25.257385 -9.08616 145.121957 1.974539 179.748654 -20.39321 -0.111503 9.386725 26.564207 -38.860901 25.60587 -0.693785 -3.047044 -0.553917 -0.0 0.0 -0.0 -0.0 -0.0 -0.0 7.397073 5.294191 87.407088 -5.774708 27.212116 -81.180018 -0.0 0.0 -0.0 -0.0 -0.0 -0.0 -7.507689 6.266531 -95.937971 63.789946 85.973743 11.073513
16.9434 82.2337 45.7145 -0.0 -0.0 -0.0 -0.0 0.0 -0.0 0.0 -0.0 -0.0 0.245875 19.608241 -158.802917 7.579128 18.139248 157.548848 -0.0 -0.0 0.0 -0.0 -0.0 0.0 -142.973735 39.431617 147.390037 -151.980852 -2.335175 170.955575 11.412418 9.227559 -1.498477 -13.289973 37.43742 3.180886 -178.51928 -16.064275 89.475724 5.58083 -60.920315 6.944574 159.641557 -69.973343 102.396332 -2.149856 27.763345 10.404249 23.903801 -61.333833 1.399383 -38.644005 53.046776 32.380564 -145.118942 0.185529 -179.186624 -135.232054 -49.57316 -167.874586 -44.838755 -48.032887 -43.620107 -162.287321 72.799216 -153.429124 142.973735 39.431617 -147.390037 -18.812347 16.03942 -8.544772 -3.844948 9.632042 33.655235 -169.365616 -20.081836 -143.345321 -19.501629 -19.157751 -0.305632 -10.109983 -38.531546 24.71701 0.327682 0.529888 -0.186114 178.465936 -20.774056 -109.129313 -173.123457 -66.297779 -137.614274 -12.091787 -19.872824 -1.645525 145.119209 0.22664 179.199539 34.268327 87.445038 -57.757751 160.128566 66.422856 151.109474 24.918677 -38.28589 27.312843 -0.0 0.0 -0.0 -0.0 -0.0 -0.0 7.397073 5.294191 87.407088 -5.764178 27.058788 -81.231577 -0.0 0.0 -0.0 -0.0 -0.0 -0.0 -7.507689 6.266531 -95.937971 63.789946 85.973743 11.073513
16.7552 82.2433 45.6308 -0.0 -0.0 -0.0 -0.0 0.0 -0.0 0.0 -0.0 -0.0 0.245875 19.608241 -158.802917 7.579128 18.139248 157.548848 -0.0 -0.0 0.0 -0.0 -0.0 0.0 -142.973735 39.431617 147.390037 -151.980852 -2.335175 170.955575 78.446302 -70.61328 49.91037 -165.020016 47.552031 138.60362 -89.136032 38.427358 50.299234 146.456834 -50.88942 64.743853 -162.919155 -37.929343 122.629395 21.380488 3.831108 -6.531267 89.035113 -81.393384 59.759886 -168.492282 -17.676787 140.817453 -132.481743 54.102976 155.533585 15.776872 20.8659 -13.736744 -139.224096 -4.39683 -136.390672 -18.458714 -37.607313 -22.372021 142.973735 39.431617 -147.390037 -18.812347 16.03942 -8.544772 -3.155762 7.282599 33.473924 -168.49089 -22.388323 -142.948502 -1.590029 -1.575931 0.222909 153.067658 -65.209527 -120.94548 26.828453 30.232322 -19.604698 168.264096 -6.094732 -116.818936 -0.047552 -0.138632 0.026316 145.539388 40.090734 -129.839698 145.119466 0.267753 179.212454 141.548125 -27.70609 174.723078 -44.735211 86.377934 5.369007 -54.39654 79.709501 18.856194 -0.0 0.0 -0.0 -0.0 -0.0 -0.0 7.397073 5.294191 87.407088 -5.764178 27.058788 -81.231577 -0.0 0.0 -0.0 -0.0 -0.0 -0.0 -7.507689 6.266531 -95.937971 63.789946 85.973743 11.073513
16.5686 82.2451 45.5534 -0.0 -0.0 -0.0 -0.0 0.0 -0.0 0.0 -0.0 -0.0 0.245875 19.608241 -158.802917 7.579128 18.139248 157.548848 -0.0 -0.0 0.0 -0.0 -0.0 0.0 -142.973735 39.431617 147.390037 -151.980852 -2.335175 170.955575 98.459896 -72.117594 69.109733 -168.582406 41.527149 140.892398 -178.927535 -16.453687 89.421826 -29.014866 -33.724092 -0.94162 -77.667448 43.02965 64.538509 1.023706 10.0417 -12.258662 -36.036059 51.723116 29.832321 -168.288284 -18.510314 146.971167 -0.014868 -1.323148 -0.415899 -67.237188 -87.070639 -78.548381 -54.047735 -50.329238 -52.728777 30.807328 83.854761 6.796741 142.973735 39.431617 -147.390037 -18.812347 16.03942 -8.544772 -3.155762 7.282599 33.473924 -168.49089 -22.388323 -142.948502 -1.590029 -1.575931 0.222909 153.067658 -65.209527 -120.94548 26.828453 30.232322 -19.604698 168.264096 -6.094732 -116.818936 -0.047552 -0.138632 0.026316 145.539388 40.090734 -129.839698 145.119466 0.267753 179.212454 140.383384 -33.370922 173.408357 -44.735211 86.377934 5.369007 -54.39654 79.709501 18.856194 -0.0 0.0 -0.0 -0.0 -0.0 -0.0 7.397073 5.294191 87.407088 -5.774708 27.212116 -81.180018 -0.0 0.0 -0.0 -0.0 -0.0 -0.0 -7.507689 6.266531 -95.937971 63.789946 85.973743 11.073513
